<mxfile host="Electron" modified="2023-04-24T08:37:34.566Z" agent="Mozilla/5.0 (Windows NT 10.0; Win64; x64) AppleWebKit/537.36 (KHTML, like Gecko) draw.io/21.2.1 Chrome/112.0.5615.87 Electron/24.1.2 Safari/537.36" etag="SqFS5EateCfYufP5hFHG" version="21.2.1" type="device">
  <diagram name="第 1 页" id="1jWnLVxNjbdckROsfw1m">
    <mxGraphModel dx="592" dy="356" grid="1" gridSize="10" guides="1" tooltips="1" connect="1" arrows="1" fold="1" page="1" pageScale="1" pageWidth="827" pageHeight="1169" math="0" shadow="0">
      <root>
        <mxCell id="0" />
        <mxCell id="1" parent="0" />
        <mxCell id="7LRGJZXsIGy5O9vR78dD-9" value="" style="edgeStyle=orthogonalEdgeStyle;rounded=0;orthogonalLoop=1;jettySize=auto;html=1;" edge="1" parent="1" source="7LRGJZXsIGy5O9vR78dD-1" target="7LRGJZXsIGy5O9vR78dD-8">
          <mxGeometry relative="1" as="geometry" />
        </mxCell>
        <mxCell id="7LRGJZXsIGy5O9vR78dD-1" value="启动程序" style="swimlane;whiteSpace=wrap;html=1;" vertex="1" parent="1">
          <mxGeometry x="130" y="180" width="200" height="240" as="geometry" />
        </mxCell>
        <mxCell id="7LRGJZXsIGy5O9vR78dD-4" value="" style="edgeStyle=orthogonalEdgeStyle;rounded=0;orthogonalLoop=1;jettySize=auto;html=1;" edge="1" parent="7LRGJZXsIGy5O9vR78dD-1" source="7LRGJZXsIGy5O9vR78dD-2" target="7LRGJZXsIGy5O9vR78dD-3">
          <mxGeometry relative="1" as="geometry" />
        </mxCell>
        <mxCell id="7LRGJZXsIGy5O9vR78dD-2" value="预定位" style="rounded=0;whiteSpace=wrap;html=1;" vertex="1" parent="7LRGJZXsIGy5O9vR78dD-1">
          <mxGeometry x="40" y="40" width="120" height="30" as="geometry" />
        </mxCell>
        <mxCell id="7LRGJZXsIGy5O9vR78dD-3" value="开环加速" style="rounded=0;whiteSpace=wrap;html=1;" vertex="1" parent="7LRGJZXsIGy5O9vR78dD-1">
          <mxGeometry x="40" y="105" width="120" height="30" as="geometry" />
        </mxCell>
        <mxCell id="7LRGJZXsIGy5O9vR78dD-5" value="状态切换" style="rounded=0;whiteSpace=wrap;html=1;" vertex="1" parent="7LRGJZXsIGy5O9vR78dD-1">
          <mxGeometry x="40" y="160" width="120" height="30" as="geometry" />
        </mxCell>
        <mxCell id="7LRGJZXsIGy5O9vR78dD-6" value="" style="edgeStyle=orthogonalEdgeStyle;rounded=0;orthogonalLoop=1;jettySize=auto;html=1;" edge="1" parent="7LRGJZXsIGy5O9vR78dD-1" source="7LRGJZXsIGy5O9vR78dD-3" target="7LRGJZXsIGy5O9vR78dD-5">
          <mxGeometry relative="1" as="geometry" />
        </mxCell>
        <mxCell id="7LRGJZXsIGy5O9vR78dD-7" value="启动信号" style="edgeStyle=none;orthogonalLoop=1;jettySize=auto;html=1;rounded=0;" edge="1" parent="1">
          <mxGeometry width="100" relative="1" as="geometry">
            <mxPoint x="30" y="310" as="sourcePoint" />
            <mxPoint x="130" y="310" as="targetPoint" />
            <Array as="points" />
          </mxGeometry>
        </mxCell>
        <mxCell id="7LRGJZXsIGy5O9vR78dD-8" value="换相逻辑" style="whiteSpace=wrap;html=1;fontStyle=1;startSize=23;" vertex="1" parent="1">
          <mxGeometry x="450" y="270" width="120" height="60" as="geometry" />
        </mxCell>
      </root>
    </mxGraphModel>
  </diagram>
</mxfile>
